<svg id="visual" viewBox="0 0 960 540" width="960" height="540" xmlns="http://www.w3.org/2000/svg" xmlns:xlink="http://www.w3.org/1999/xlink" version="1.1"><rect x="0" y="0" width="960" height="540" fill="#1844bc"></rect><defs><linearGradient id="grad1_0" x1="43.8%" y1="0%" x2="100%" y2="100%"><stop offset="14.444444444444446%" stop-color="#1844bc" stop-opacity="1"></stop><stop offset="85.55555555555554%" stop-color="#1844bc" stop-opacity="1"></stop></linearGradient></defs><defs><linearGradient id="grad2_0" x1="0%" y1="0%" x2="56.3%" y2="100%"><stop offset="14.444444444444446%" stop-color="#1844bc" stop-opacity="1"></stop><stop offset="85.55555555555554%" stop-color="#1844bc" stop-opacity="1"></stop></linearGradient></defs><g transform="translate(960, 0)"><path d="M0 297C-37.5 287.3 -74.9 277.6 -108.7 262.4C-142.4 247.1 -172.5 226.3 -201.5 201.5C-230.6 176.7 -258.6 147.9 -274.4 113.7C-290.1 79.4 -293.6 39.7 -297 0L0 0Z" fill="#296acc"></path></g><g transform="translate(0, 540)"><path d="M0 -297C39.5 -293.6 78.9 -290.2 113.7 -274.4C148.4 -258.6 178.3 -230.4 200.1 -200.1C221.9 -169.8 235.6 -137.4 250.4 -103.7C265.2 -70 281.1 -35 297 0L0 0Z" fill="#296acc"></path></g></svg>