<svg id="visual" viewBox="0 0 960 540" width="960" height="540" xmlns="http://www.w3.org/2000/svg" xmlns:xlink="http://www.w3.org/1999/xlink" version="1.1"><rect x="0" y="0" width="960" height="540" fill="#1844bc"></rect><g transform="translate(-7.2687216099835155 557.7097476761255)"><path d="M201.5 -266C239.8 -208.1 234.6 -124.3 231.5 -53.9C228.3 16.5 227.2 73.5 212 143.7C196.9 213.9 167.7 297.2 118.5 307.2C69.3 317.1 0 253.7 -60.8 212C-121.5 170.4 -173.8 150.4 -199 112.2C-224.2 74 -222.4 17.6 -211.5 -36.1C-200.6 -89.8 -180.7 -140.6 -143.9 -198.8C-107.1 -257 -53.6 -322.5 14 -339.2C81.6 -356 163.3 -323.9 201.5 -266" fill="#1e68d8"></path></g></svg>